<svg width="44" height="45" viewBox="0 0 44 45" fill="none" xmlns="http://www.w3.org/2000/svg">
<path d="M36.6 15.25L34.45 10.25L29.25 7.95001L34.45 5.70001L36.6 0.950012L38.75 5.70001L43.95 7.95001L38.75 10.25L36.6 15.25ZM36.6 45L34.45 40.2L29.25 37.95L34.45 35.7L36.6 30.65L38.75 35.7L43.95 37.95L38.75 40.2L36.6 45ZM14.65 37.3L10.05 27.45L0 22.95L10.05 18.45L14.65 8.65001L19.3 18.45L29.3 22.95L19.3 27.45L14.65 37.3ZM14.65 29.9L17.05 25.1L21.95 22.95L17.05 20.8L14.65 16L12.3 20.8L7.35 22.95L12.3 25.1L14.65 29.9Z" fill="white"/>
</svg>
